# xmcd CD database file
#
# Track frame offsets:
#	150
#	21221
#	41816
#	62137
#	87367
#	110015
#	131196
#	157168
#	172508
#	190431
#	208363
#	225411
#	246909
#	269361
#	296128
#	313051
#	334703
#
# Disc length: 4740 seconds
#
# Revision: 0
# Processed by: cddbd v1.4PL0 Copyright (c) Steve Scherf et al.
# Submitted via: CDex 1.50
#
DISCID=06128211
DTITLE=Elton John - Grand Collection
DYEAR=2003
DGENRE=Blues
TTITLE0=Someday Out Of The Blue
TTITLE1=Word In Spanish
TTITLE2=I Want Love
TTITLE3=Nikita
TTITLE4=Sacrifice
TTITLE5=Original Sin
TTITLE6=The One
TTITLE7=Blue Eyes
TTITLE8=Whispers
TTITLE9=Can You Feel The Love Tonight
TTITLE10=Candle In The Wind
TTITLE11=American Triangle
TTITLE12=Blessed
TTITLE13=Belfast
TTITLE14=Sorry Seems To Be The Hardest
TTITLE15=You Gotta Love Somebody
TTITLE16=Believe
EXTD=YEAR: 2003
EXTT0=
EXTT1=
EXTT2=
EXTT3=
EXTT4=
EXTT5=
EXTT6=
EXTT7=
EXTT8=
EXTT9=
EXTT10=
EXTT11=
EXTT12=
EXTT13=
EXTT14=
EXTT15=
EXTT16=
PLAYORDER=
